# xmcd CD database file
#
# Track frame offsets:
#	150
#	26435
#	41338
#
# Disc length: 772 seconds
#
# Revision: 0
# Processed by: cddbd v1.5PL3 Copyright (c) Steve Scherf et al.
# Submitted via: CDex 1.50beta8
#
DISCID=17030203
DTITLE=元ちとせ - 千の夜と千の昼
DYEAR=2003
DGENRE=Pop
TTITLE0=千の夜と千の昼
TTITLE1=白夜
TTITLE2=True Colors
EXTD=YEAR: 2003
EXTT0=
EXTT1=
EXTT2=
PLAYORDER=
